<svg xmlns="http://www.w3.org/2000/svg" width="1200" height="420" viewBox="0 0 1200 420" role="img" aria-label="T3lluz terminal banner with live GitHub stats">
  <title>T3lluz · 1,346 contributions in the last year</title>
  <defs>
    <linearGradient id="bg" x1="0" y1="0" x2="1" y2="1"><stop offset="0" stop-color="#0d1117"/><stop offset="1" stop-color="#111827"/></linearGradient>
    <linearGradient id="logoFill" x1="48" y1="0" x2="648.0" y2="0" gradientUnits="userSpaceOnUse">
      <stop offset="0" stop-color="#00e5ff"/><stop offset=".5" stop-color="#58a6ff"/><stop offset="1" stop-color="#a371f7"/>
    </linearGradient>
    <linearGradient id="shine" x1="0" x2="1"><stop offset="0" stop-color="#fff" stop-opacity="0"/><stop offset=".5" stop-color="#fff" stop-opacity=".75"/><stop offset="1" stop-color="#fff" stop-opacity="0"/></linearGradient>
    <linearGradient id="fadeL" x1="0" x2="1"><stop offset="0" stop-color="#0a0f16"/><stop offset="1" stop-color="#0a0f16" stop-opacity="0"/></linearGradient>
    <linearGradient id="fadeR" x1="0" x2="1"><stop offset="0" stop-color="#0a0f16" stop-opacity="0"/><stop offset="1" stop-color="#0a0f16"/></linearGradient>
    <filter id="neon" x="-5%" y="-20%" width="110%" height="140%">
      <feGaussianBlur stdDeviation="4" result="b"/>
      <feMerge><feMergeNode in="b"/><feMergeNode in="SourceGraphic"/></feMerge>
    </filter>
    <pattern id="scan" width="4" height="4" patternUnits="userSpaceOnUse"><rect width="4" height="1" fill="#fff" opacity=".035"/></pattern>
    <path id="logoBlocks" d="M48 118h96v22.5h-96zM156 118h72v22.5h-72zM252 118h24v22.5h-24zM348 118h24v22.5h-24zM444 118h24v22.5h-24zM516 118h24v22.5h-24zM552 118h84v22.5h-84zM84 140h24v22.5h-24zM216 140h24v22.5h-24zM252 140h24v22.5h-24zM348 140h24v22.5h-24zM444 140h24v22.5h-24zM516 140h24v22.5h-24zM588 140h36v22.5h-36zM84 162h24v22.5h-24zM168 162h60v22.5h-60zM252 162h24v22.5h-24zM348 162h24v22.5h-24zM444 162h24v22.5h-24zM516 162h24v22.5h-24zM576 162h36v22.5h-36zM84 184h24v22.5h-24zM216 184h24v22.5h-24zM252 184h24v22.5h-24zM348 184h24v22.5h-24zM444 184h24v22.5h-24zM516 184h24v22.5h-24zM564 184h36v22.5h-36zM84 206h24v22.5h-24zM156 206h72v22.5h-72zM252 206h84v22.5h-84zM348 206h84v22.5h-84zM456 206h72v22.5h-72zM552 206h84v22.5h-84z"/>
    <path id="logoShadow" d="M144 125.92L152.4 125.92L152.4 140M144 132.08L147.6 132.08L147.6 140M228 125.92L236.4 125.92L236.4 140M228 132.08L231.6 132.08L231.6 140M276 125.92L284.4 125.92L284.4 140M276 132.08L279.6 132.08L279.6 140M372 125.92L380.4 125.92L380.4 140M372 132.08L375.6 132.08L375.6 140M468 125.92L476.4 125.92L476.4 140M468 132.08L471.6 132.08L471.6 140M540 125.92L548.4 125.92L548.4 140M540 132.08L543.6 132.08L543.6 140M636 125.92L644.4 125.92L644.4 140M636 132.08L639.6 132.08L639.6 140M60 154.08L51.6 154.08L51.6 140M60 147.92L56.4 147.92L56.4 140M60 147.92L72 147.92M60 154.08L72 154.08M72 147.92L84 147.92M72 154.08L84 154.08M120 147.92L111.6 147.92L111.6 162M120 154.08L116.4 154.08L116.4 162M120 147.92L132 147.92M120 154.08L132 154.08M132 147.92L144 147.92M132 154.08L144 154.08M144 154.08L152.4 154.08L152.4 140M144 147.92L147.6 147.92L147.6 140M168 154.08L159.6 154.08L159.6 140M168 147.92L164.4 147.92L164.4 140M168 147.92L180 147.92M168 154.08L180 154.08M180 147.92L192 147.92M180 154.08L192 154.08M192 147.92L204 147.92M192 154.08L204 154.08M204 147.92L216 147.92M204 154.08L216 154.08M240 147.92L248.4 147.92L248.4 162M240 154.08L243.6 154.08L243.6 162M279.6 140L279.6 162M284.4 140L284.4 162M375.6 140L375.6 162M380.4 140L380.4 162M471.6 140L471.6 162M476.4 140L476.4 162M543.6 140L543.6 162M548.4 140L548.4 162M564 154.08L555.6 154.08L555.6 140M564 147.92L560.4 147.92L560.4 140M564 147.92L576 147.92M564 154.08L576 154.08M576 147.92L588 147.92M576 154.08L588 154.08M636 147.92L627.6 147.92L627.6 162M636 154.08L632.4 154.08L632.4 162M636 154.08L644.4 154.08L644.4 140M636 147.92L639.6 147.92L639.6 140M111.6 162L111.6 184M116.4 162L116.4 184M240 169.92L231.6 169.92L231.6 184M240 176.08L236.4 176.08L236.4 184M240 176.08L248.4 176.08L248.4 162M240 169.92L243.6 169.92L243.6 162M279.6 162L279.6 184M284.4 162L284.4 184M375.6 162L375.6 184M380.4 162L380.4 184M471.6 162L471.6 184M476.4 162L476.4 184M543.6 162L543.6 184M548.4 162L548.4 184M624 169.92L615.6 169.92L615.6 184M624 176.08L620.4 176.08L620.4 184M624 176.08L632.4 176.08L632.4 162M624 169.92L627.6 169.92L627.6 162M111.6 184L111.6 206M116.4 184L116.4 206M180 198.08L171.6 198.08L171.6 184M180 191.92L176.4 191.92L176.4 184M180 191.92L192 191.92M180 198.08L192 198.08M192 191.92L204 191.92M192 198.08L204 198.08M204 191.92L216 191.92M204 198.08L216 198.08M240 191.92L248.4 191.92L248.4 206M240 198.08L243.6 198.08L243.6 206M279.6 184L279.6 206M284.4 184L284.4 206M375.6 184L375.6 206M380.4 184L380.4 206M471.6 184L471.6 206M476.4 184L476.4 206M543.6 184L543.6 206M548.4 184L548.4 206M612 191.92L603.6 191.92L603.6 206M612 198.08L608.4 198.08L608.4 206M612 198.08L620.4 198.08L620.4 184M612 191.92L615.6 191.92L615.6 184M111.6 206L111.6 228M116.4 206L116.4 228M240 213.92L231.6 213.92L231.6 228M240 220.08L236.4 220.08L236.4 228M240 220.08L248.4 220.08L248.4 206M240 213.92L243.6 213.92L243.6 206M336 213.92L344.4 213.92L344.4 228M336 220.08L339.6 220.08L339.6 228M432 213.92L440.4 213.92L440.4 228M432 220.08L435.6 220.08L435.6 228M456 220.08L447.6 220.08L447.6 206M456 213.92L452.4 213.92L452.4 206M540 213.92L531.6 213.92L531.6 228M540 220.08L536.4 220.08L536.4 228M540 220.08L548.4 220.08L548.4 206M540 213.92L543.6 213.92L543.6 206M636 213.92L644.4 213.92L644.4 228M636 220.08L639.6 220.08L639.6 228M96 242.08L87.6 242.08L87.6 228M96 235.92L92.4 235.92L92.4 228M96 235.92L108 235.92M96 242.08L108 242.08M108 242.08L116.4 242.08L116.4 228M108 235.92L111.6 235.92L111.6 228M168 242.08L159.6 242.08L159.6 228M168 235.92L164.4 235.92L164.4 228M168 235.92L180 235.92M168 242.08L180 242.08M180 235.92L192 235.92M180 242.08L192 242.08M192 235.92L204 235.92M192 242.08L204 242.08M204 235.92L216 235.92M204 242.08L216 242.08M216 235.92L228 235.92M216 242.08L228 242.08M228 242.08L236.4 242.08L236.4 228M228 235.92L231.6 235.92L231.6 228M264 242.08L255.6 242.08L255.6 228M264 235.92L260.4 235.92L260.4 228M264 235.92L276 235.92M264 242.08L276 242.08M276 235.92L288 235.92M276 242.08L288 242.08M288 235.92L300 235.92M288 242.08L300 242.08M300 235.92L312 235.92M300 242.08L312 242.08M312 235.92L324 235.92M312 242.08L324 242.08M324 235.92L336 235.92M324 242.08L336 242.08M336 242.08L344.4 242.08L344.4 228M336 235.92L339.6 235.92L339.6 228M360 242.08L351.6 242.08L351.6 228M360 235.92L356.4 235.92L356.4 228M360 235.92L372 235.92M360 242.08L372 242.08M372 235.92L384 235.92M372 242.08L384 242.08M384 235.92L396 235.92M384 242.08L396 242.08M396 235.92L408 235.92M396 242.08L408 242.08M408 235.92L420 235.92M408 242.08L420 242.08M420 235.92L432 235.92M420 242.08L432 242.08M432 242.08L440.4 242.08L440.4 228M432 235.92L435.6 235.92L435.6 228M468 242.08L459.6 242.08L459.6 228M468 235.92L464.4 235.92L464.4 228M468 235.92L480 235.92M468 242.08L480 242.08M480 235.92L492 235.92M480 242.08L492 242.08M492 235.92L504 235.92M492 242.08L504 242.08M504 235.92L516 235.92M504 242.08L516 242.08M516 235.92L528 235.92M516 242.08L528 242.08M528 242.08L536.4 242.08L536.4 228M528 235.92L531.6 235.92L531.6 228M564 242.08L555.6 242.08L555.6 228M564 235.92L560.4 235.92L560.4 228M564 235.92L576 235.92M564 242.08L576 242.08M576 235.92L588 235.92M576 242.08L588 242.08M588 235.92L600 235.92M588 242.08L600 242.08M600 235.92L612 235.92M600 242.08L612 242.08M612 235.92L624 235.92M612 242.08L624 242.08M624 235.92L636 235.92M624 242.08L636 242.08M636 242.08L644.4 242.08L644.4 228M636 235.92L639.6 235.92L639.6 228" fill="none" stroke="#1f6feb" stroke-width="1.6" stroke-linejoin="round"/>
    <clipPath id="logoClip"><use href="#logoBlocks"/></clipPath>
    <clipPath id="logoReveal"><rect x="44" y="114" height="140.0" width="0"><animate attributeName="width" begin="0.9s" dur="0.9s" calcMode="discrete" values="0;12.16;24.32;36.48;48.64;60.8;72.96;85.12;97.28;109.44;121.6;133.76;145.92;158.08;170.24;182.4;194.56;206.72;218.88;231.04;243.2;255.36;267.52;279.68;291.84;304;316.16;328.32;340.48;352.64;364.8;376.96;389.12;401.28;413.44;425.6;437.76;449.92;462.08;474.24;486.4;498.56;510.72;522.88;535.04;547.2;559.36;571.52;583.68;595.84;608" fill="freeze"/></rect></clipPath>
    <clipPath id="cmd"><rect x="48" y="62" height="24" width="0"><animate attributeName="width" begin="0.2s" dur="0.595s" calcMode="discrete" values="0;9.118;18.235;27.353;36.471;45.588;54.706;63.824;72.941;82.059;91.176;100.294;109.412;118.529;127.647;136.765;145.882;155" fill="freeze"/></rect></clipPath>
    <clipPath id="tagline"><rect x="48" y="264.0" height="26" width="0"><animate attributeName="width" begin="2.2s" dur="0.84s" calcMode="discrete" values="0;10;20;30;40;50;60;70;80;90;100;110;120;130;140;150;160;170;180;190;200;210;220;230;240;250;260;270;280;290;300;310;320;330;340;350;360;370;380;390;400;410;420;430;440;450;460;470;480;490;500;510;520;530;540;550;560;570;580;590;600" fill="freeze"/></rect></clipPath>
    <clipPath id="tickerClip"><rect x="30" y="364" width="1140" height="32"/></clipPath>
    <clipPath id="info0"><rect x="700" y="130" height="22" width="0"><animate attributeName="width" begin="1.3s" dur="0.264s" calcMode="discrete" values="0;9.182;18.364;27.545;36.727;45.909;55.091;64.273;73.455;82.636;91.818;101;110.182;119.364;128.545;137.727;146.909;156.091;165.273;174.455;183.636;192.818;202" fill="freeze"/></rect></clipPath><clipPath id="info1"><rect x="700" y="153" height="22" width="0"><animate attributeName="width" begin="1.46s" dur="0.252s" calcMode="discrete" values="0;9.19;18.381;27.571;36.762;45.952;55.143;64.333;73.524;82.714;91.905;101.095;110.286;119.476;128.667;137.857;147.048;156.238;165.429;174.619;183.81;193" fill="freeze"/></rect></clipPath><clipPath id="info2"><rect x="700" y="176" height="22" width="0"><animate attributeName="width" begin="1.62s" dur="0.348s" calcMode="discrete" values="0;9.138;18.276;27.414;36.552;45.69;54.828;63.966;73.103;82.241;91.379;100.517;109.655;118.793;127.931;137.069;146.207;155.345;164.483;173.621;182.759;191.897;201.034;210.172;219.31;228.448;237.586;246.724;255.862;265" fill="freeze"/></rect></clipPath><clipPath id="info3"><rect x="700" y="199" height="22" width="0"><animate attributeName="width" begin="1.78s" dur="0.372s" calcMode="discrete" values="0;9.129;18.258;27.387;36.516;45.645;54.774;63.903;73.032;82.161;91.29;100.419;109.548;118.677;127.806;136.935;146.065;155.194;164.323;173.452;182.581;191.71;200.839;209.968;219.097;228.226;237.355;246.484;255.613;264.742;273.871;283" fill="freeze"/></rect></clipPath><clipPath id="info4"><rect x="700" y="222" height="22" width="0"><animate attributeName="width" begin="1.94s" dur="0.54s" calcMode="discrete" values="0;9.089;18.178;27.267;36.356;45.444;54.533;63.622;72.711;81.8;90.889;99.978;109.067;118.156;127.244;136.333;145.422;154.511;163.6;172.689;181.778;190.867;199.956;209.044;218.133;227.222;236.311;245.4;254.489;263.578;272.667;281.756;290.844;299.933;309.022;318.111;327.2;336.289;345.378;354.467;363.556;372.644;381.733;390.822;399.911;409" fill="freeze"/></rect></clipPath><clipPath id="info5"><rect x="700" y="245" height="22" width="0"><animate attributeName="width" begin="2.1s" dur="0.516s" calcMode="discrete" values="0;9.093;18.186;27.279;36.372;45.465;54.558;63.651;72.744;81.837;90.93;100.023;109.116;118.209;127.302;136.395;145.488;154.581;163.674;172.767;181.86;190.953;200.047;209.14;218.233;227.326;236.419;245.512;254.605;263.698;272.791;281.884;290.977;300.07;309.163;318.256;327.349;336.442;345.535;354.628;363.721;372.814;381.907;391" fill="freeze"/></rect></clipPath><clipPath id="info6"><rect x="700" y="268" height="22" width="0"><animate attributeName="width" begin="2.26s" dur="0.468s" calcMode="discrete" values="0;9.103;18.205;27.308;36.41;45.513;54.615;63.718;72.821;81.923;91.026;100.128;109.231;118.333;127.436;136.538;145.641;154.744;163.846;172.949;182.051;191.154;200.256;209.359;218.462;227.564;236.667;245.769;254.872;263.974;273.077;282.179;291.282;300.385;309.487;318.59;327.692;336.795;345.897;355" fill="freeze"/></rect></clipPath><clipPath id="info7"><rect x="700" y="291" height="22" width="0"><animate attributeName="width" begin="2.42s" dur="0.456s" calcMode="discrete" values="0;9.105;18.211;27.316;36.421;45.526;54.632;63.737;72.842;81.947;91.053;100.158;109.263;118.368;127.474;136.579;145.684;154.789;163.895;173;182.105;191.211;200.316;209.421;218.526;227.632;236.737;245.842;254.947;264.053;273.158;282.263;291.368;300.474;309.579;318.684;327.789;336.895;346" fill="freeze"/></rect></clipPath><clipPath id="info8"><rect x="700" y="314" height="22" width="0"><animate attributeName="width" begin="2.58s" dur="0.348s" calcMode="discrete" values="0;9.138;18.276;27.414;36.552;45.69;54.828;63.966;73.103;82.241;91.379;100.517;109.655;118.793;127.931;137.069;146.207;155.345;164.483;173.621;182.759;191.897;201.034;210.172;219.31;228.448;237.586;246.724;255.862;265" fill="freeze"/></rect></clipPath>
  </defs>
  <rect width="1200" height="420" rx="16" fill="url(#bg)"/>
  <rect x=".5" y=".5" width="1199" height="419" rx="15.5" fill="none" stroke="#30363d"/>
  <rect x="16" y="16" width="1168" height="388" rx="11" fill="#0a0f16" stroke="#1f2a38"/>
  <rect x="16" y="16" width="1168" height="30" rx="11" fill="#111822"/>
  <rect x="16" y="36" width="1168" height="10" fill="#111822"/>
  <circle cx="36" cy="31" r="5.5" fill="#ff5f57"/><circle cx="54" cy="31" r="5.5" fill="#febc2e"/><circle cx="72" cy="31" r="5.5" fill="#28c840"/>
  <text x="600.0" y="36" text-anchor="middle" font-family="ui-monospace, 'Cascadia Code', 'JetBrains Mono', SFMono-Regular, Menlo, Consolas, 'Liberation Mono', monospace" font-size="13" fill="#8b949e">t3lluz@github: ~</text>

  <g font-family="ui-monospace, 'Cascadia Code', 'JetBrains Mono', SFMono-Regular, Menlo, Consolas, 'Liberation Mono', monospace">
    <text x="48" y="80" font-size="15" clip-path="url(#cmd)"><tspan fill="#7ee787">❯</tspan><tspan fill="#e6edf3"> fastfetch</tspan><tspan fill="#8b949e"> --live</tspan></text>

    <g clip-path="url(#logoReveal)">
      <g filter="url(#neon)"><use href="#logoShadow"/><use href="#logoBlocks" fill="url(#logoFill)"/></g>
      <g clip-path="url(#logoClip)">
        <rect x="-300" y="118" width="220" height="134.0" fill="url(#shine)" transform="skewX(-20)">
          <animate attributeName="x" begin="2.4s" dur="7s" repeatCount="indefinite" values="-252;868.0;868.0" keyTimes="0;.22;1"/>
        </rect>
      </g>
      <g opacity="0" style="mix-blend-mode:screen"><animate attributeName="opacity" dur="9s" begin="3s" repeatCount="indefinite" calcMode="discrete" values="0;0.9;0;0.9;0;0.9;0" keyTimes="0;0.467;0.489;0.5;0.522;0.844;0.867"/><use href="#logoBlocks" fill="#ff2e88"><animateTransform attributeName="transform" type="translate" dur="9s" begin="3s" repeatCount="indefinite" calcMode="discrete" values="0 0;-5 0;3 1;-2 0;0 0;-5 0;3 1;-2 0;0 0;-5 0;3 1;-2 0;0 0" keyTimes="0;0.467;0.476;0.482;0.489;0.5;0.509;0.516;0.522;0.844;0.853;0.86;0.867"/></use></g><g opacity="0" style="mix-blend-mode:screen"><animate attributeName="opacity" dur="9s" begin="3s" repeatCount="indefinite" calcMode="discrete" values="0;0.9;0;0.9;0;0.9;0" keyTimes="0;0.467;0.489;0.5;0.522;0.844;0.867"/><use href="#logoBlocks" fill="#00e5ff"><animateTransform attributeName="transform" type="translate" dur="9s" begin="3s" repeatCount="indefinite" calcMode="discrete" values="0 0;5 0;-3 1;2 0;0 0;5 0;-3 1;2 0;0 0;5 0;-3 1;2 0;0 0" keyTimes="0;0.467;0.476;0.482;0.489;0.5;0.509;0.516;0.522;0.844;0.853;0.86;0.867"/></use></g>
      <clipPath id="lslice0"><rect x="0" y="197.424" width="1200" height="8.586"/></clipPath><g clip-path="url(#lslice0)" opacity="0"><animate attributeName="opacity" dur="9s" begin="3s" repeatCount="indefinite" calcMode="discrete" values="0;1;0;1;0;1;0" keyTimes="0;0.467;0.487;0.5;0.52;0.844;0.864"/><g><animateTransform attributeName="transform" type="translate" dur="9s" begin="3s" repeatCount="indefinite" calcMode="discrete" values="0 0;-24.698 0;12.349 0;-8.233 0;0 0;21.477 0;-10.738 0;7.159 0;0 0;-11.878 0;5.939 0;-3.959 0;0 0" keyTimes="0;0.467;0.473;0.48;0.487;0.5;0.507;0.513;0.52;0.844;0.851;0.858;0.864"/><use href="#logoShadow"/><use href="#logoBlocks" fill="url(#logoFill)"/></g></g><clipPath id="lslice1"><rect x="0" y="156.551" width="1200" height="15.147"/></clipPath><g clip-path="url(#lslice1)" opacity="0"><animate attributeName="opacity" dur="9s" begin="3s" repeatCount="indefinite" calcMode="discrete" values="0;1;0;1;0;1;0" keyTimes="0;0.467;0.487;0.5;0.52;0.844;0.864"/><g><animateTransform attributeName="transform" type="translate" dur="9s" begin="3s" repeatCount="indefinite" calcMode="discrete" values="0 0;-13.517 0;6.759 0;-4.506 0;0 0;12.14 0;-6.07 0;4.047 0;0 0;-18.201 0;9.1 0;-6.067 0;0 0" keyTimes="0;0.467;0.473;0.48;0.487;0.5;0.507;0.513;0.52;0.844;0.851;0.858;0.864"/><use href="#logoShadow"/><use href="#logoBlocks" fill="url(#logoFill)"/></g></g><clipPath id="lslice2"><rect x="0" y="151.311" width="1200" height="9.183"/></clipPath><g clip-path="url(#lslice2)" opacity="0"><animate attributeName="opacity" dur="9s" begin="3s" repeatCount="indefinite" calcMode="discrete" values="0;1;0;1;0;1;0" keyTimes="0;0.467;0.487;0.5;0.52;0.844;0.864"/><g><animateTransform attributeName="transform" type="translate" dur="9s" begin="3s" repeatCount="indefinite" calcMode="discrete" values="0 0;15.262 0;-7.631 0;5.087 0;0 0;18.551 0;-9.276 0;6.184 0;0 0;-13.96 0;6.98 0;-4.653 0;0 0" keyTimes="0;0.467;0.473;0.48;0.487;0.5;0.507;0.513;0.52;0.844;0.851;0.858;0.864"/><use href="#logoShadow"/><use href="#logoBlocks" fill="url(#logoFill)"/></g></g>
    </g>
    <text x="48" y="282.0" font-size="15" fill="#8b949e" clip-path="url(#tagline)"><tspan fill="#58a6ff">//</tspan> building the tools I want to use every day</text>
    <text x="48" y="324.0" font-size="15"><tspan fill="#7ee787">❯</tspan><tspan fill="#e6edf3"> git push</tspan><tspan fill="#8b949e"> --daily</tspan>
      <tspan fill="#58a6ff">▋<animate attributeName="opacity" values="1;0" dur="1.1s" calcMode="discrete" repeatCount="indefinite"/></tspan></text>

    <text x="700" y="112" font-size="15" fill="#58a6ff" font-weight="700">t3lluz<tspan fill="#8b949e">@</tspan>github</text><text x="700" y="124" font-size="15" fill="#21262d">────────────────────</text><text x="700" y="146" font-size="15" clip-path="url(#info0)"><tspan fill="#39d0d8" font-weight="700">OS</tspan><tspan fill="#8b949e">: </tspan><tspan fill="#e6edf3">Linux · KDE Plasma</tspan></text><text x="700" y="169" font-size="15" clip-path="url(#info1)"><tspan fill="#39d0d8" font-weight="700">Host</tspan><tspan fill="#8b949e">: </tspan><tspan fill="#e6edf3">GitHub · Norway</tspan></text><text x="700" y="192" font-size="15" clip-path="url(#info2)"><tspan fill="#39d0d8" font-weight="700">Uptime</tspan><tspan fill="#8b949e">: </tspan><tspan fill="#e6edf3">4y 9m of pushing code</tspan></text><text x="700" y="215" font-size="15" clip-path="url(#info3)"><tspan fill="#39d0d8" font-weight="700">Focus</tspan><tspan fill="#8b949e">: </tspan><tspan fill="#e6edf3">BSc Computer engineering</tspan></text><text x="700" y="238" font-size="15" clip-path="url(#info4)"><tspan fill="#39d0d8" font-weight="700">Langs</tspan><tspan fill="#8b949e">: </tspan><tspan fill="#e6edf3">Kotlin · JavaScript · TypeScript · CSS</tspan></text><text x="700" y="261" font-size="15" clip-path="url(#info5)"><tspan fill="#39d0d8" font-weight="700">Repos</tspan><tspan fill="#8b949e">: </tspan><tspan fill="#e6edf3">16 public · 2 stars · 195 merged PRs</tspan></text><text x="700" y="284" font-size="15" clip-path="url(#info6)"><tspan fill="#39d0d8" font-weight="700">Year</tspan><tspan fill="#8b949e">: </tspan><tspan fill="#e6edf3">1,346 contributions · 989 commits</tspan></text><text x="700" y="307" font-size="15" clip-path="url(#info7)"><tspan fill="#39d0d8" font-weight="700">Streak</tspan><tspan fill="#8b949e">: </tspan><tspan fill="#e6edf3">best 22 days · 111 active days</tspan></text><text x="700" y="330" font-size="15" clip-path="url(#info8)"><tspan fill="#39d0d8" font-weight="700">Now</tspan><tspan fill="#8b949e">: </tspan><tspan fill="#e6edf3">Cinema-Info (JavaScript)</tspan></text><rect x="700" y="347" width="26" height="14" rx="2" fill="#0d1117" stroke="#21262d" opacity="0"><set attributeName="opacity" to="1" begin="3s" fill="freeze"/></rect><rect x="730" y="347" width="26" height="14" rx="2" fill="#ff7b72" stroke="#21262d" opacity="0"><set attributeName="opacity" to="1" begin="3.05s" fill="freeze"/></rect><rect x="760" y="347" width="26" height="14" rx="2" fill="#7ee787" stroke="#21262d" opacity="0"><set attributeName="opacity" to="1" begin="3.1s" fill="freeze"/></rect><rect x="790" y="347" width="26" height="14" rx="2" fill="#d29922" stroke="#21262d" opacity="0"><set attributeName="opacity" to="1" begin="3.15s" fill="freeze"/></rect><rect x="820" y="347" width="26" height="14" rx="2" fill="#58a6ff" stroke="#21262d" opacity="0"><set attributeName="opacity" to="1" begin="3.2s" fill="freeze"/></rect><rect x="850" y="347" width="26" height="14" rx="2" fill="#bc8cff" stroke="#21262d" opacity="0"><set attributeName="opacity" to="1" begin="3.25s" fill="freeze"/></rect><rect x="880" y="347" width="26" height="14" rx="2" fill="#39d0d8" stroke="#21262d" opacity="0"><set attributeName="opacity" to="1" begin="3.3s" fill="freeze"/></rect><rect x="910" y="347" width="26" height="14" rx="2" fill="#e6edf3" stroke="#21262d" opacity="0"><set attributeName="opacity" to="1" begin="3.35s" fill="freeze"/></rect>

    <rect x="16" y="360" width="1168" height="1" fill="#1f2a38"/>
    <g clip-path="url(#tickerClip)">
      <g>
        <animateTransform attributeName="transform" type="translate" from="0 0" to="-3015.6 0" dur="54.829s" repeatCount="indefinite"/>
        <text x="40" y="386" font-size="14" fill="#8b949e" textLength="3015.6" lengthAdjust="spacing" xml:space="preserve">1,346 contributions in the last year   ◆   989 commits · 201 pull requests   ◆   longest streak: 22 days   ◆   best day: 78 contributions on 08 Aug 2026   ◆   most productive on Fridays   ◆   Cinema-Info updated today   ◆   DailyDash updated 4 days ago   ◆   PorcoRosso updated 6 days ago   ◆   Power-Deck updated 2 weeks ago   ◆   refreshed 2026-09-16   ◆   </text>
        <text x="3055.6" y="386" font-size="14" fill="#8b949e" textLength="3015.6" lengthAdjust="spacing" xml:space="preserve">1,346 contributions in the last year   ◆   989 commits · 201 pull requests   ◆   longest streak: 22 days   ◆   best day: 78 contributions on 08 Aug 2026   ◆   most productive on Fridays   ◆   Cinema-Info updated today   ◆   DailyDash updated 4 days ago   ◆   PorcoRosso updated 6 days ago   ◆   Power-Deck updated 2 weeks ago   ◆   refreshed 2026-09-16   ◆   </text>
      </g>
      <rect x="30" y="364" width="60" height="32" fill="url(#fadeL)"/>
      <rect x="1110" y="364" width="60" height="32" fill="url(#fadeR)"/>
    </g>
  </g>
  <rect x="16" y="46" width="1168" height="358" fill="url(#scan)" pointer-events="none"/>
</svg>
